<svg width="67" height="70" viewBox="0 0 67 70" fill="none" xmlns="http://www.w3.org/2000/svg">
<path d="M12.182 16.3891C12.0128 16.3891 11.8743 16.3353 11.7665 16.2275C11.6588 16.1198 11.6049 15.9813 11.6049 15.812V0.807915C11.6049 0.638637 11.6588 0.500137 11.7665 0.392416C11.8743 0.284694 12.0128 0.230832 12.182 0.230832H18.4838C19.7303 0.230832 20.8075 0.423193 21.7154 0.807915C22.6388 1.19264 23.3543 1.77741 23.8622 2.56224C24.3854 3.33168 24.647 4.29349 24.647 5.44765C24.647 6.6172 24.3854 7.5867 23.8622 8.35614C23.3543 9.1102 22.6388 9.67189 21.7154 10.0412C20.8075 10.4106 19.7303 10.5952 18.4838 10.5952H15.3906V15.812C15.3906 15.9813 15.3367 16.1198 15.229 16.2275C15.1213 16.3353 14.9828 16.3891 14.8135 16.3891H12.182ZM15.3214 7.73289H18.3683C19.1532 7.73289 19.761 7.54053 20.1919 7.15581C20.6382 6.77109 20.8613 6.19401 20.8613 5.42457C20.8613 4.74746 20.6613 4.19346 20.2612 3.76257C19.8765 3.33168 19.2455 3.11624 18.3683 3.11624H15.3214V7.73289Z" fill="#01CC8E"/>
<path d="M27.5784 16.3891C27.4091 16.3891 27.2706 16.3353 27.1629 16.2275C27.0552 16.1198 27.0013 15.9813 27.0013 15.812V0.807915C27.0013 0.638637 27.0552 0.500137 27.1629 0.392416C27.2706 0.284694 27.4091 0.230832 27.5784 0.230832H33.6955C35.6191 0.230832 37.1349 0.677109 38.2429 1.56966C39.3509 2.44683 39.9049 3.71641 39.9049 5.3784C39.9049 6.50179 39.6355 7.44051 39.0969 8.19456C38.5583 8.94861 37.8351 9.51031 36.9271 9.87964L40.1819 15.6505C40.228 15.7428 40.2511 15.8274 40.2511 15.9044C40.2511 16.0275 40.2049 16.1429 40.1126 16.2506C40.0203 16.343 39.9049 16.3891 39.7664 16.3891H37.2041C36.9271 16.3891 36.7194 16.3199 36.5809 16.1814C36.4424 16.0275 36.3423 15.889 36.2808 15.7659L33.4646 10.4798H30.6715V15.812C30.6715 15.9813 30.6177 16.1198 30.51 16.2275C30.4022 16.3353 30.2637 16.3891 30.0945 16.3891H27.5784ZM30.6715 7.54823H33.6262C34.4726 7.54823 35.0958 7.35587 35.4959 6.97115C35.9114 6.58643 36.1192 6.04782 36.1192 5.35532C36.1192 4.66282 35.9191 4.11652 35.519 3.71641C35.1189 3.3163 34.488 3.11624 33.6262 3.11624H30.6715V7.54823Z" fill="#01CC8E"/>
<path d="M49.0853 16.62C47.6849 16.62 46.4769 16.3891 45.4613 15.9275C44.4456 15.4658 43.6531 14.7733 43.0837 13.85C42.5143 12.9112 42.2065 11.734 42.1603 10.3182C42.145 9.6565 42.1373 9.00247 42.1373 8.35614C42.1373 7.69442 42.145 7.02501 42.1603 6.3479C42.2065 4.9629 42.5143 3.80104 43.0837 2.86233C43.6684 1.90822 44.4687 1.19264 45.4843 0.715582C46.5154 0.238527 47.7157 0 49.0853 0C50.4395 0 51.6245 0.238527 52.6401 0.715582C53.6712 1.19264 54.4791 1.90822 55.0639 2.86233C55.6487 3.80104 55.9564 4.9629 55.9872 6.3479C56.018 7.02501 56.0334 7.69442 56.0334 8.35614C56.0334 9.00247 56.018 9.6565 55.9872 10.3182C55.9411 11.734 55.6333 12.9112 55.0639 13.85C54.4945 14.7733 53.702 15.4658 52.6863 15.9275C51.6706 16.3891 50.4703 16.62 49.0853 16.62ZM49.0853 13.6422C49.9779 13.6422 50.7088 13.3729 51.2782 12.8343C51.863 12.2803 52.1708 11.4031 52.2016 10.2028C52.2323 9.52569 52.2477 8.89475 52.2477 8.30998C52.2477 7.70981 52.2323 7.07887 52.2016 6.41715C52.1862 5.61693 52.04 4.9629 51.763 4.45507C51.486 3.94724 51.1166 3.57791 50.655 3.34707C50.2087 3.10085 49.6855 2.97774 49.0853 2.97774C48.4852 2.97774 47.9542 3.10085 47.4926 3.34707C47.0309 3.57791 46.6616 3.94724 46.3846 4.45507C46.123 4.9629 45.9768 5.61693 45.946 6.41715C45.9306 7.07887 45.9229 7.70981 45.9229 8.30998C45.9229 8.89475 45.9306 9.52569 45.946 10.2028C45.9922 11.4031 46.2999 12.2803 46.8693 12.8343C47.4387 13.3729 48.1774 13.6422 49.0853 13.6422Z" fill="#01CC8E"/>
<path d="M10.741 70C9.2944 70 8.06329 69.7615 7.04763 69.2844C6.04735 68.792 5.27022 68.0841 4.71622 67.1608C4.16222 66.222 3.85444 65.0833 3.79289 63.7444C3.7775 63.1135 3.7698 62.4364 3.7698 61.7131C3.7698 60.9898 3.7775 60.2973 3.79289 59.6356C3.85444 58.3122 4.16222 57.1888 4.71622 56.2655C5.28561 55.3267 6.07813 54.6112 7.0938 54.1187C8.10946 53.6263 9.32518 53.3801 10.741 53.3801C11.772 53.3801 12.7107 53.5109 13.5571 53.7725C14.4035 54.0341 15.1345 54.4111 15.75 54.9035C16.3656 55.396 16.8426 55.9731 17.1812 56.6348C17.5197 57.2965 17.7044 58.0352 17.7352 58.8508C17.7352 58.9893 17.6813 59.1047 17.5736 59.197C17.4813 59.2894 17.3658 59.3355 17.2273 59.3355H14.5959C14.4112 59.3355 14.265 59.2894 14.1573 59.197C14.0496 59.1047 13.9649 58.9508 13.9034 58.7354C13.6725 57.8274 13.2878 57.2042 12.7492 56.8656C12.2106 56.5271 11.5412 56.3578 10.741 56.3578C9.78684 56.3578 9.03279 56.6194 8.47879 57.1426C7.92479 57.6658 7.62471 58.5353 7.57854 59.751C7.53238 61.0129 7.53238 62.3056 7.57854 63.629C7.62471 64.8447 7.92479 65.7142 8.47879 66.2374C9.03279 66.7607 9.78684 67.0223 10.741 67.0223C11.5412 67.0223 12.2106 66.853 12.7492 66.5144C13.3032 66.1605 13.6879 65.5372 13.9034 64.6447C13.9649 64.4138 14.0496 64.26 14.1573 64.183C14.265 64.0907 14.4112 64.0445 14.5959 64.0445H17.2273C17.3658 64.0445 17.4813 64.0907 17.5736 64.183C17.6813 64.2754 17.7352 64.3908 17.7352 64.5293C17.7044 65.3449 17.5197 66.0835 17.1812 66.7453C16.8426 67.407 16.3656 67.9841 15.75 68.4765C15.1345 68.9689 14.4035 69.346 13.5571 69.6076C12.7107 69.8692 11.772 70 10.741 70Z" fill="#01CC8E"/>
<path d="M20.9059 69.7692C20.7366 69.7692 20.5981 69.7153 20.4904 69.6076C20.3827 69.4999 20.3288 69.3614 20.3288 69.1921V54.188C20.3288 54.0187 20.3827 53.8802 20.4904 53.7725C20.5981 53.6647 20.7366 53.6109 20.9059 53.6109H23.422C23.5912 53.6109 23.7297 53.6647 23.8375 53.7725C23.9452 53.8802 23.999 54.0187 23.999 54.188V59.9588H30.2546V54.188C30.2546 54.0187 30.3085 53.8802 30.4162 53.7725C30.5239 53.6647 30.6624 53.6109 30.8317 53.6109H33.3478C33.517 53.6109 33.6555 53.6647 33.7633 53.7725C33.871 53.8802 33.9248 54.0187 33.9248 54.188V69.1921C33.9248 69.3614 33.871 69.4999 33.7633 69.6076C33.6555 69.7153 33.517 69.7692 33.3478 69.7692H30.8317C30.6624 69.7692 30.5239 69.7153 30.4162 69.6076C30.3085 69.4999 30.2546 69.3614 30.2546 69.1921V63.2366H23.999V69.1921C23.999 69.3614 23.9452 69.4999 23.8375 69.6076C23.7297 69.7153 23.5912 69.7692 23.422 69.7692H20.9059Z" fill="#01CC8E"/>
<path d="M36.4018 69.7692C36.2633 69.7692 36.1479 69.723 36.0555 69.6307C35.9632 69.5229 35.917 69.4075 35.917 69.2844C35.917 69.2075 35.9247 69.1382 35.9401 69.0767L41.4339 54.2341C41.4801 54.0649 41.5724 53.9187 41.7109 53.7956C41.8494 53.6724 42.0418 53.6109 42.288 53.6109H45.2427C45.4889 53.6109 45.6813 53.6724 45.8198 53.7956C45.9583 53.9187 46.0506 54.0649 46.0968 54.2341L51.5906 69.0767C51.606 69.1382 51.6137 69.2075 51.6137 69.2844C51.6137 69.4075 51.5675 69.5229 51.4752 69.6307C51.3828 69.723 51.2674 69.7692 51.1289 69.7692H48.7283C48.4974 69.7692 48.3281 69.7153 48.2204 69.6076C48.1127 69.4999 48.0434 69.3998 48.0127 69.3075L47.0201 66.7222H40.5106L39.518 69.3075C39.4873 69.3998 39.418 69.4999 39.3103 69.6076C39.2026 69.7153 39.0333 69.7692 38.8024 69.7692H36.4018ZM41.3647 63.7444H46.1429L43.7654 57.0965L41.3647 63.7444Z" fill="#01CC8E"/>
<path d="M56.0649 69.7692C55.8957 69.7692 55.7572 69.7153 55.6494 69.6076C55.5417 69.4999 55.4879 69.3614 55.4879 69.1921V56.8195H51.2867C51.1328 56.8195 51.002 56.7656 50.8943 56.6579C50.7866 56.5502 50.7327 56.4193 50.7327 56.2655V54.188C50.7327 54.0187 50.7866 53.8802 50.8943 53.7725C51.002 53.6647 51.1328 53.6109 51.2867 53.6109H63.3823C63.5516 53.6109 63.6901 53.6647 63.7978 53.7725C63.9056 53.8802 63.9594 54.0187 63.9594 54.188V56.2655C63.9594 56.4193 63.9056 56.5502 63.7978 56.6579C63.6901 56.7656 63.5516 56.8195 63.3823 56.8195H59.2043V69.1921C59.2043 69.3614 59.1504 69.4999 59.0427 69.6076C58.935 69.7153 58.7965 69.7692 58.6272 69.7692H56.0649Z" fill="#01CC8E"/>
<path d="M5.79225 46.6859C5.53833 46.6859 5.33059 46.5936 5.169 46.4089C5.0305 46.2242 4.98434 46.0049 5.0305 45.751L7.93899 32.2473L3.68013 35.0519C3.42622 35.2135 3.18384 35.2712 2.95301 35.2251C2.72218 35.1558 2.54905 35.0058 2.43364 34.7749L0.0445177 30.5161C-0.024732 30.2852 -0.0131904 30.0429 0.0791426 29.789C0.194559 29.512 0.379225 29.3042 0.633141 29.1657L10.3627 22.6909C10.5012 22.5985 10.6282 22.5408 10.7436 22.5177C10.859 22.4716 10.9975 22.4485 11.1591 22.4485H17.7032C17.9571 22.4485 18.1533 22.5408 18.2918 22.7255C18.4534 22.9101 18.5111 23.1294 18.465 23.3833L13.6867 45.751C13.6406 46.0049 13.5021 46.2242 13.2712 46.4089C13.0635 46.5936 12.8326 46.6859 12.5787 46.6859H5.79225Z" fill="white"/>
<path d="M28.4269 47.0322C26.234 47.0091 24.3758 46.6167 22.8523 45.8549C21.3288 45.0932 20.2093 44.0429 19.4937 42.704C18.7781 41.3652 18.5357 39.8533 18.7666 38.1682C18.8589 37.5449 18.9859 36.7832 19.1475 35.8829C19.3321 34.9827 19.5283 34.0824 19.7361 33.1822C19.9438 32.2589 20.14 31.474 20.3247 30.8277C20.8094 29.1426 21.5481 27.6538 22.5407 26.3611C23.5333 25.0453 24.8375 24.0066 26.4533 23.2448C28.0691 22.4831 30.0312 22.1022 32.3395 22.1022C34.4401 22.1022 36.2637 22.4831 37.8103 23.2448C39.3568 24.0066 40.511 25.0453 41.2728 26.3611C42.0576 27.6538 42.3231 29.1426 42.0691 30.8277C41.9768 31.474 41.8383 32.2589 41.6536 33.1822C41.469 34.0824 41.2728 34.9827 41.065 35.8829C40.8803 36.7832 40.6957 37.5449 40.511 38.1682C40.0263 39.8533 39.2991 41.3652 38.3296 42.704C37.3832 44.0429 36.1021 45.0932 34.4863 45.8549C32.8935 46.6167 30.8738 47.0091 28.4269 47.0322ZM29.1887 40.2457C29.8581 40.2457 30.3775 40.0379 30.7468 39.6224C31.1161 39.1838 31.3816 38.6414 31.5432 37.9951C31.7278 37.3256 31.9125 36.5754 32.0972 35.7444C32.2818 34.9134 32.455 34.0824 32.6165 33.2514C32.8012 32.3974 32.9397 31.6587 33.032 31.0355C33.1244 30.4353 33.0782 29.9159 32.8935 29.4773C32.732 29.0387 32.3049 28.8079 31.6124 28.7848C30.9199 28.8079 30.4005 29.0387 30.0543 29.4773C29.708 29.9159 29.4541 30.4353 29.2925 31.0355C29.131 31.6587 28.9463 32.3974 28.7386 33.2514C28.5539 34.0824 28.3808 34.9134 28.2192 35.7444C28.0576 36.5754 27.9191 37.3256 27.8037 37.9951C27.7113 38.6414 27.7575 39.1838 27.9422 39.6224C28.1268 40.0379 28.5423 40.2457 29.1887 40.2457Z" fill="white"/>
<path d="M53.2459 47.0322C51.053 47.0091 49.1948 46.6167 47.6713 45.8549C46.1478 45.0932 45.0283 44.0429 44.3127 42.704C43.5971 41.3652 43.3548 39.8533 43.5856 38.1682C43.6779 37.5449 43.8049 36.7832 43.9665 35.8829C44.1511 34.9827 44.3473 34.0824 44.5551 33.1822C44.7628 32.2589 44.959 31.474 45.1437 30.8277C45.6285 29.1426 46.3671 27.6538 47.3597 26.3611C48.3523 25.0453 49.6565 24.0066 51.2723 23.2448C52.8882 22.4831 54.8502 22.1022 57.1586 22.1022C59.2591 22.1022 61.0827 22.4831 62.6293 23.2448C64.1759 24.0066 65.33 25.0453 66.0918 26.3611C66.8766 27.6538 67.1421 29.1426 66.8882 30.8277C66.7958 31.474 66.6573 32.2589 66.4727 33.1822C66.288 34.0824 66.0918 34.9827 65.884 35.8829C65.6994 36.7832 65.5147 37.5449 65.33 38.1682C64.8453 39.8533 64.1182 41.3652 63.1487 42.704C62.2023 44.0429 60.9211 45.0932 59.3053 45.8549C57.7126 46.6167 55.6928 47.0091 53.2459 47.0322ZM54.0077 40.2457C54.6771 40.2457 55.1965 40.0379 55.5658 39.6224C55.9351 39.1838 56.2006 38.6414 56.3622 37.9951C56.5469 37.3256 56.7315 36.5754 56.9162 35.7444C57.1008 34.9134 57.274 34.0824 57.4356 33.2514C57.6202 32.3974 57.7587 31.6587 57.8511 31.0355C57.9434 30.4353 57.8972 29.9159 57.7126 29.4773C57.551 29.0387 57.1239 28.8079 56.4314 28.7848C55.7389 28.8079 55.2196 29.0387 54.8733 29.4773C54.5271 29.9159 54.2732 30.4353 54.1116 31.0355C53.95 31.6587 53.7653 32.3974 53.5576 33.2514C53.3729 34.0824 53.1998 34.9134 53.0382 35.7444C52.8766 36.5754 52.7381 37.3256 52.6227 37.9951C52.5304 38.6414 52.5765 39.1838 52.7612 39.6224C52.9459 40.0379 53.3614 40.2457 54.0077 40.2457Z" fill="white"/>
</svg>
