<?xml version="1.0" encoding="iso-8859-1"?>
<!-- Generator: Adobe Illustrator 19.0.0, SVG Export Plug-In . SVG Version: 6.00 Build 0)  -->
<svg version="1.1" id="Layer_1" xmlns="http://www.w3.org/2000/svg" xmlns:xlink="http://www.w3.org/1999/xlink" x="0px" y="0px"
	 viewBox="0 0 512 512" style="enable-background:new 0 0 512 512;" xml:space="preserve">
<g>
	<g>
		<g>
			<path d="M378.182,55.461c-22.457,0-40.727,18.27-40.727,40.727c0,22.457,18.27,40.727,40.727,40.727s40.727-18.27,40.727-40.727
				C418.909,73.731,400.639,55.461,378.182,55.461z M378.182,113.643c-9.624,0-17.455-7.83-17.455-17.455
				c0-9.624,7.83-17.455,17.455-17.455s17.455,7.83,17.455,17.455C395.636,105.813,387.806,113.643,378.182,113.643z"
				fill="#01CC8E"/>
			<path d="M336.041,305.799c2.978,0,5.957-1.136,8.228-3.408l3.636-3.636c4.544-4.544,4.544-11.912,0-16.457
				c-4.544-4.544-11.912-4.544-16.456,0l-3.636,3.636c-4.544,4.544-4.544,11.912,0,16.457
				C330.085,304.663,333.063,305.799,336.041,305.799z"
				fill="#01CC8E"/>
			<path d="M89.592,305.799c2.978,0,5.957-1.136,8.228-3.408l3.636-3.636c4.544-4.544,4.544-11.912,0-16.457
				c-4.543-4.544-11.911-4.544-16.456,0l-3.636,3.636c-4.544,4.544-4.544,11.912,0,16.457
				C83.636,304.663,86.614,305.799,89.592,305.799z"
				fill="#01CC8E"/>
			<path d="M169.815,302.391c2.273,2.273,5.25,3.408,8.228,3.408c2.978,0,5.957-1.136,8.228-3.408
				c4.544-4.544,4.544-11.912,0-16.457l-3.635-3.636c-4.544-4.544-11.912-4.544-16.457,0c-4.544,4.544-4.544,11.912,0,16.457
				L169.815,302.391z"
				fill="#01CC8E"/>
			<path d="M504.506,93.753l-31.313-11.928C466.239,35.631,426.284,0.1,378.182,0.1s-88.056,35.53-95.011,81.723L256,92.175
				L137.961,47.208c-0.003-0.001-0.007-0.001-0.012-0.002c-2.636-1.002-5.578-1.025-8.275,0.002L7.493,93.753
				C2.982,95.472,0,99.798,0,104.627v264.964c0,0.003,0,0.008,0,0.012v130.66c0,3.827,1.882,7.41,5.034,9.581
				c1.969,1.358,4.276,2.055,6.604,2.055c1.396,0,2.8-0.251,4.141-0.762l118.039-44.966l118.039,44.968
				c1.342,0.511,2.745,0.762,4.141,0.762c1.387,0,2.758-0.278,4.062-0.765c0.028-0.002,0.05,0.014,0.081,0.002l118.039-44.968
				l118.039,44.968c1.342,0.511,2.745,0.762,4.141,0.762c2.327,0,4.635-0.698,6.604-2.055c3.151-2.171,5.034-5.754,5.034-9.581
				V104.627C512,99.798,509.019,95.472,504.506,93.753z M122.182,445.698l-98.909,37.68V374.417l42.944-42.944
				c4.544-4.544,4.544-11.912,0-16.457c-4.544-4.544-11.912-4.544-16.457,0l-26.487,26.487V112.646l98.909-37.68V445.698z
				 M244.364,341.504l-26.487-26.487c-4.544-4.545-11.912-4.544-16.456,0s-4.545,11.912,0,16.456l42.943,42.943v108.962
				l-98.909-37.68V74.966l98.909,37.68V341.504z M366.545,445.698l-98.909,37.68V376.501l45.028-45.028
				c4.544-4.544,4.544-11.912,0-16.457s-11.912-4.544-16.457,0l-28.571,28.572V112.646l15.458-5.888
				c8.512,49.624,69.309,139.251,83.451,159.588V445.698z M378.181,242.119c-26.628-39.644-72.815-114.866-72.815-145.93
				c0-40.15,32.666-72.816,72.816-72.816s72.816,32.664,72.816,72.816C450.997,127.233,404.809,202.467,378.181,242.119z
				M488.727,483.378l-98.909-37.68V266.346c14.143-20.337,74.941-109.964,83.453-159.588l15.457,5.888V483.378z"
				fill="#01CC8E"/>
		</g>
	</g>
</g>
<g>
</g>
<g>
</g>
<g>
</g>
<g>
</g>
<g>
</g>
<g>
</g>
<g>
</g>
<g>
</g>
<g>
</g>
<g>
</g>
<g>
</g>
<g>
</g>
<g>
</g>
<g>
</g>
<g>
</g>
</svg>
